<?xml version="1.0" encoding="utf-8"?>
<!-- Generator: Adobe Illustrator 16.0.0, SVG Export Plug-In . SVG Version: 6.00 Build 0)  -->
<!DOCTYPE svg PUBLIC "-//W3C//DTD SVG 1.1 Tiny//EN" "http://www.w3.org/Graphics/SVG/1.1/DTD/svg11-tiny.dtd">
<svg version="1.1" baseProfile="tiny" id="Layer_1" xmlns="http://www.w3.org/2000/svg" xmlns:xlink="http://www.w3.org/1999/xlink"
	 x="0px" y="0px" width="52.168px" height="26.236px" viewBox="0 0 52.168 26.236" xml:space="preserve">
<rect x="0.606" y="0.557" fill="#676767" width="51.013" height="25.18"/>
<path fill="#4F4F4F" d="M52.119,26.237H0.106V0.057h52.013V26.237z M1.106,25.237h50.013V1.057H1.106V25.237z"/>
<g>
	<rect x="0.5" y="0.5" fill="#F3F3F3" width="25.356" height="25.212"/>
	<path fill="#B2B2B2" d="M26.356,26.212H0V0h26.356V26.212z M1,25.212h24.356V1H1V25.212z"/>
</g>
<g id="PÅ_1_" display="none">
	<g display="inline">
		<rect x="0.553" y="0.557" fill="#30B22A" width="51.013" height="25.18"/>
		<path fill="#4F4F4F" d="M52.066,26.237H0.053V0.057h52.013V26.237L52.066,26.237z M1.053,25.237h50.013V1.057H1.053V25.237z"/>
	</g>
	<g display="inline">
		<g>
			<rect x="26.26" y="0.499" fill="#F3F3F3" width="25.355" height="25.212"/>
			<path fill="#B2B2B2" d="M52.115,26.212H25.76V-0.001h26.355V26.212L52.115,26.212z M26.76,25.212h24.355V0.999H26.76V25.212z"/>
		</g>
		<g>
			<g>
				<rect x="34.869" y="9.585" fill="#959595" width="2.027" height="6.996"/>
			</g>
			<g>
				<rect x="37.877" y="9.585" fill="#959595" width="2.025" height="6.996"/>
			</g>
			<g>
				<rect x="40.885" y="9.585" fill="#959595" width="2.025" height="6.996"/>
			</g>
		</g>
	</g>
	<g display="inline">
		<path fill="#FFFFFF" d="M6.85,9.101h3.282c1.605,0,2.53,0.985,2.53,2.326c0,1.189-0.731,2.409-2.5,2.409H8.668v2.511H6.85V9.101z
			 M9.837,12.445c0.65,0,1.057-0.386,1.057-0.966c0-0.619-0.417-0.955-1.067-0.955H8.668v1.921H9.837z"/>
	</g>
	<g display="inline">
		<path fill="#FFFFFF" d="M14.987,9.092h1.941l2.541,7.257h-1.86l-0.437-1.353H14.58l-0.447,1.353h-1.718L14.987,9.092z
			 M14.763,7.496c0-0.62,0.528-1.077,1.168-1.077c0.671,0,1.179,0.366,1.179,1.006c0,0.62-0.549,1.089-1.179,1.089
			C15.251,8.512,14.763,8.106,14.763,7.496z M16.725,13.573l-0.833-2.622h-0.03l-0.844,2.622H16.725z M16.44,7.466
			c0-0.283-0.193-0.498-0.508-0.498c-0.305,0-0.498,0.215-0.498,0.498c0,0.274,0.223,0.487,0.498,0.487
			C16.216,7.953,16.44,7.74,16.44,7.466z"/>
	</g>
</g>
</svg>
