<?xml version="1.0" encoding="utf-8"?>
<!-- Generator: Adobe Illustrator 16.0.0, SVG Export Plug-In . SVG Version: 6.00 Build 0)  -->
<!DOCTYPE svg PUBLIC "-//W3C//DTD SVG 1.1//EN" "http://www.w3.org/Graphics/SVG/1.1/DTD/svg11.dtd">
<svg version="1.1" id="Layer_1" xmlns="http://www.w3.org/2000/svg" xmlns:xlink="http://www.w3.org/1999/xlink" x="0px" y="0px"
	 width="52.168px" height="26.236px" viewBox="0 0 52.168 26.236" enable-background="new 0 0 52.168 26.236" xml:space="preserve">
<g id="AV" display="none">
	<g display="inline">
		<rect x="0.606" y="0.557" fill="none" stroke="#4F4F4F" stroke-miterlimit="10" width="51.013" height="25.18"/>
		<path fill="none" stroke="#4F4F4F" stroke-miterlimit="10" d="M52.119,26.237H0.106V0.057h52.013V26.237z M1.106,25.237h50.013
			V1.057H1.106V25.237z"/>
	</g>
	<g display="inline">
		<rect x="0.5" y="0.5" fill="#B2B2B2" width="25.356" height="25.212"/>
		<path fill="#B2B2B2" d="M26.356,26.212H0V0h26.356V26.212z M1,25.212h24.356V1H1V25.212z"/>
	</g>
</g>
<path opacity="0.45" d="M48.383,13.118c0-6.135-4.971-11.108-11.107-11.112l0,0H14.868v0.002C8.744,2.024,3.786,6.99,3.786,13.118
	c0,6.127,4.958,11.094,11.083,11.109v0.002h22.406l0,0C43.412,24.225,48.383,19.253,48.383,13.118z"/>
<path fill="#4F4F4F" d="M37.275,24.729H14.869C8.481,24.711,3.286,19.502,3.286,13.118c0-6.385,5.195-11.593,11.581-11.61
	l22.408-0.002c6.4,0.004,11.607,5.213,11.607,11.612C48.883,19.516,43.676,24.725,37.275,24.729z M14.868,2.506
	C9.034,2.523,4.286,7.284,4.286,13.118c0,5.835,4.748,10.595,10.584,10.609l22.405,0.002c5.849-0.004,10.606-4.765,10.606-10.611
	c0-5.848-4.759-10.608-10.606-10.612H14.868z"/>
<g>
	<circle fill="#F3F3F3" cx="12.733" cy="13.119" r="12.233"/>
	<path fill="#B2B2B2" d="M12.733,25.85C5.712,25.85,0,20.139,0,13.119C0,6.097,5.712,0.385,12.733,0.385s12.733,5.714,12.733,12.733
		C25.466,20.139,19.754,25.85,12.733,25.85z M12.733,1.385C6.264,1.385,1,6.649,1,13.119C1,19.588,6.264,24.85,12.733,24.85
		c6.469,0,11.733-5.265,11.733-11.731C24.466,6.649,19.203,1.385,12.733,1.385z"/>
</g>
<g id="PÅ_1_" display="none">
	<g display="inline">
		<rect x="0.553" y="0.557" fill="#30B22A" width="51.013" height="25.18"/>
		<path fill="#4F4F4F" d="M52.066,26.237H0.053V0.057h52.013V26.237L52.066,26.237z M1.053,25.237h50.013V1.057H1.053V25.237z"/>
	</g>
	<g display="inline">
		<rect x="26.26" y="0.499" fill="#F3F3F3" width="25.355" height="25.212"/>
		<path fill="#B2B2B2" d="M52.115,26.212H25.76V-0.001h26.355V26.212L52.115,26.212z M26.76,25.212h24.355V0.999H26.76V25.212z"/>
	</g>
</g>
</svg>
