<?xml version="1.0" encoding="utf-8"?>
<!-- Generator: Adobe Illustrator 16.0.0, SVG Export Plug-In . SVG Version: 6.00 Build 0)  -->
<!DOCTYPE svg PUBLIC "-//W3C//DTD SVG 1.1 Tiny//EN" "http://www.w3.org/Graphics/SVG/1.1/DTD/svg11-tiny.dtd">
<svg version="1.1" baseProfile="tiny" id="Layer_1" xmlns="http://www.w3.org/2000/svg" xmlns:xlink="http://www.w3.org/1999/xlink"
	 x="0px" y="0px" width="52.168px" height="26.236px" viewBox="0 0 52.168 26.236" xml:space="preserve">
<g id="AV" display="none">
	<g display="inline">
		<rect x="0.606" y="0.557" fill="#676767" width="51.013" height="25.18"/>
		<path fill="#4F4F4F" d="M52.119,26.237H0.106V0.057h52.013V26.237z M1.106,25.237h50.013V1.057H1.106V25.237z"/>
	</g>
	<g display="inline">
		<g>
			<rect x="0.5" y="0.5" fill="#F3F3F3" width="25.356" height="25.212"/>
			<path fill="#B2B2B2" d="M26.356,26.212H0V0h26.356V26.212z M1,25.212h24.356V1H1V25.212z"/>
		</g>
		<g>
			<g>
				<rect x="9.11" y="9.586" fill="#959595" width="2.026" height="6.995"/>
			</g>
			<g>
				<rect x="12.118" y="9.586" fill="#959595" width="2.026" height="6.995"/>
			</g>
			<g>
				<rect x="15.125" y="9.586" fill="#959595" width="2.026" height="6.995"/>
			</g>
		</g>
	</g>
	<g display="inline">
		<path fill="#E6E7E8" d="M34.945,9.092h1.941l2.539,7.257h-1.859l-0.437-1.353h-2.592l-0.447,1.353h-1.718L34.945,9.092z
			 M36.684,13.573l-0.834-2.622H35.82l-0.844,2.622H36.684z"/>
	</g>
	<g display="inline">
		<path fill="#E6E7E8" d="M38.805,9.101h1.869l1.424,5.111h0.029l1.464-5.111h1.728l-2.356,7.267h-1.858L38.805,9.101z"/>
	</g>
</g>
<g>
	<rect x="0.553" y="0.557" fill="#30B22A" width="51.013" height="25.18"/>
	<path fill="#4F4F4F" d="M52.066,26.237H0.053V0.057h52.013V26.237L52.066,26.237z M1.053,25.237h50.013V1.057H1.053V25.237z"/>
</g>
<g>
	<rect x="26.26" y="0.499" fill="#F3F3F3" width="25.355" height="25.212"/>
	<path fill="#B2B2B2" d="M52.115,26.212H25.76V-0.001h26.355V26.212L52.115,26.212z M26.76,25.212h24.355V0.999H26.76V25.212z"/>
</g>
</svg>
