<?xml version="1.0" encoding="utf-8"?>
<!-- Generator: Adobe Illustrator 16.0.0, SVG Export Plug-In . SVG Version: 6.00 Build 0)  -->
<!DOCTYPE svg PUBLIC "-//W3C//DTD SVG 1.1 Tiny//EN" "http://www.w3.org/Graphics/SVG/1.1/DTD/svg11-tiny.dtd">
<svg version="1.1" baseProfile="tiny" id="Layer_3" xmlns="http://www.w3.org/2000/svg" xmlns:xlink="http://www.w3.org/1999/xlink"
	 x="0px" y="0px" width="52.168px" height="26.236px" viewBox="0 0 52.168 26.236" xml:space="preserve">
<g>
	<path fill="#30B22A" d="M48.383,13.118c0-6.135-4.971-11.108-11.107-11.112l0,0H14.868v0.002C8.744,2.024,3.786,6.99,3.786,13.118
		c0,6.127,4.958,11.094,11.083,11.109v0.002h22.407l0,0C43.412,24.225,48.383,19.253,48.383,13.118z"/>
	<path fill="#4F4F4F" d="M37.275,24.729H14.868C8.481,24.711,3.286,19.502,3.286,13.118c0-6.385,5.195-11.593,11.581-11.61
		l22.409-0.002c6.4,0.004,11.607,5.213,11.607,11.612C48.883,19.516,43.676,24.725,37.275,24.729z M14.868,2.506
		C9.034,2.523,4.286,7.284,4.286,13.118c0,5.835,4.748,10.595,10.584,10.609l22.406,0.002c5.849-0.004,10.607-4.764,10.607-10.611
		S43.124,2.51,37.275,2.506H14.868z"/>
</g>
<g>
	<circle fill="#F3F3F3" cx="39.435" cy="13.119" r="12.233"/>
	<path fill="#B2B2B2" d="M39.436,25.85c-7.021,0-12.734-5.711-12.734-12.731c0-7.021,5.713-12.733,12.734-12.733
		c7.021,0,12.732,5.712,12.732,12.733C52.168,20.139,46.456,25.85,39.436,25.85z M39.436,1.385c-6.471,0-11.734,5.264-11.734,11.733
		c0,6.469,5.264,11.731,11.734,11.731c6.469,0,11.732-5.263,11.732-11.731C51.168,6.649,45.904,1.385,39.436,1.385z"/>
</g>
</svg>
